<?xml version="1.0" encoding="utf-8" ?><svg xmlns="http://www.w3.org/2000/svg" xmlns:xlink="http://www.w3.org/1999/xlink" width="500" height="500" viewBox="0 0 500 500"><path fill="#F5F5F4" d="M270.934 45.5849C271.423 45.5034 273.578 45.4371 274.067 45.4635C279.235 45.7417 285.408 47.2171 289.047 51.0855C293.641 55.9701 292.848 61.0371 293.271 67.0744C293.666 69.5019 294.751 71.9323 294.596 74.4292C294.452 76.7492 293.577 78.9977 292.656 81.1134C291.562 83.6303 290.474 86.2672 288.847 88.5066C288.12 89.5066 286.945 90.4988 286.025 91.3377C286.166 93.0066 286.362 93.9128 286.713 95.5425L288.893 92.3532C295.341 82.9486 300.457 81.5277 311.08 88.2C315.555 91.0104 316.382 94.7592 317.091 99.8091C323.487 97.7358 331.046 92.9415 336.763 100.878C338.193 102.864 338.305 105.677 339.275 108.026C344.587 111.736 342.75 111.26 345.554 115.488C347.754 116.459 354.569 116.084 357.523 116.483C365.151 117.515 369.13 123.26 368.165 130.824C367.514 135.919 364.101 137.8 360.252 140.568C360.223 144.048 363.886 144.317 365.522 146.999C366.513 148.425 366.869 150.583 367.644 152.066C370.377 156.828 373.697 163.621 367.007 167.01C362.616 169.235 359.388 166.52 355.045 171.23C352.419 174.077 350.398 174.813 350.613 179.554C350.774 183.112 348.817 187.38 345.12 188.2C342.066 188.964 340.336 188.051 337.779 186.605C337.564 187.751 337.224 189.19 337.529 190.285C339.318 191.835 366.675 190.867 371.347 191.151C378.375 191.579 386.922 191.292 394.083 191.85C397.621 192.125 397.749 195.055 398.336 197.921C399.583 205.718 400.816 213.573 401.996 221.382L407.694 258.484L412.575 288.595C413.562 294.63 415.283 302.064 414.952 308.03C414.849 309.888 401.976 313.849 399.732 314.697C394.48 316.681 389.189 318.655 383.861 320.445C382.318 320.963 379.804 321.618 378.1 321.656C371.182 320.652 363.77 318.191 357.088 316.182C357.119 316.732 357.134 317.199 357.133 317.752L356.987 331.438C356.961 342.715 357.356 352.591 348.714 361.044C340.167 369.404 331.338 368.407 320.369 368.151C311.983 367.956 303.548 367.641 295.201 367.549C291.061 375.829 291.553 374.809 282.782 376.722C282.235 377.467 280.796 379.739 280.641 380.56C280.029 383.806 280.335 387.523 279.973 390.843C279.52 394.99 278.935 399.058 278.506 403.187C278.349 404.696 279.193 407.11 278.856 408.851C278.463 410.888 277.173 411.814 275.623 412.97C273.983 413.858 272.851 414.112 271.059 414.62C269.324 414.175 265.962 412.44 264.718 413.237C261.236 415.598 257.209 415.89 253.339 414.093C247.869 411.552 247.586 402.44 245.597 396.786C241.935 398.252 237.035 399.631 233.055 398.876C229.553 398.211 227.886 395.388 226.138 392.673C223.881 395.659 221.292 396.843 217.592 397.058C213.025 397.323 211.938 392.821 208.672 390.772C207.109 389.818 204.466 389.49 203.217 388.139C200.963 385.702 201.199 381.038 200.57 377.905C199.874 374.443 198.287 370.699 198.194 367.243C193.973 367.124 190.476 367.098 186.211 367.271C173.895 367.773 161.6 370.715 151.182 362.133C142.211 354.744 142.027 345.74 141.612 335.028C141.378 328.967 141.504 321.281 140.757 315.298L140.713 314.959C137.497 315.917 133.84 316.87 130.589 317.763C126.419 318.907 119.944 321.785 115.772 320.466C105.073 317.108 93.6317 313.707 83.3411 309.411C80.9948 308.432 84.3634 286.337 84.6803 283.141L89.493 237.372C90.6041 226.664 91.8667 215.936 93.2237 205.249C93.7566 201.053 93.9429 196.147 95.8756 192.405C96.0418 192.083 98.5918 191.732 99.1186 191.736C113.391 191.443 127.678 191.459 141.95 191.075C141.137 183.331 141.579 180.174 150.171 179.435C151.321 174.49 152.727 171.763 156.486 168.444C151.105 161.935 149.192 154.083 150.772 146.206C152.498 137.598 157.428 134.524 164.496 130.832C165.371 130.375 168.245 125.697 169.575 124.406C172.409 121.656 175.404 121.313 178.332 119.192C179.961 115.634 179.973 112.074 180.775 108.399C182.318 101.321 184.648 86.7692 190.051 81.9625C195.842 76.8103 209.144 73.6573 216.854 72.5138C218.99 72.1971 222.275 72.3568 224.572 72.0314C228.257 71.5093 233.204 70.0226 236.811 70.1048C242.257 70.229 247.844 70.857 253.344 71.085C252.333 65.4085 253.114 57.6459 256.655 52.8913C260.242 48.0746 265.239 46.4577 270.934 45.5849ZM206.223 145.538C209.877 137.654 211.489 134.98 216.664 128.747C219.347 125.515 220.079 108.555 220.031 103.695C216.304 103.441 213.057 103.018 209.397 102.672C206.832 106.801 199.206 117.465 200.605 122.191C202.885 129.895 204.991 137.55 203.025 145.665C202.822 146.504 202.184 148.103 202.38 148.855C203.776 149.278 205.555 146.6 206.223 145.538ZM166.13 173.522L166.191 173.896C166.739 177.349 165.171 180.406 169.558 180.593C172.196 181.058 184.823 180.924 187.263 179.232C187.787 178.038 186.045 174.897 185.606 173.538C186.004 172.006 186.941 169.414 186.33 168.141L186.01 167.964C178.831 172.741 175.074 173.657 166.13 173.522Z"/><path fill="#040403" d="M258.813 78.3558C262.012 71.7036 258.618 67.3394 260.158 60.3931C261.956 51.7651 271.945 50.7562 279.05 52.4428C285.979 54.0875 288.366 60.5733 286.323 66.9524C287.044 69.725 287.507 71.3396 288.838 73.8612C287.95 74.2291 286.797 74.6043 286.338 75.4296C287.537 78.9953 285.79 77.6211 285.156 79.2316C285.416 79.7382 285.548 80.0174 285.752 80.5475C283.309 87.5837 280.429 85.5337 274.634 83.6635C273.632 84.9221 273.06 85.9864 272.26 87.3779C279.574 93.101 283.456 96.2403 283.504 106.326C286.738 110.402 287.61 112.055 288.787 117.028C292.902 112.039 293.771 111.615 297.049 105.668C294.532 100.646 291.092 95.5354 296.721 91.6837C301.586 88.3546 304.589 90.7341 308.422 93.9944C313.85 98.6108 305.944 105.739 303.828 110.047C299.782 117.954 296.433 127.178 290.122 133.656C286.02 137.889 281.396 133.198 278.385 130.188C275.45 127.319 272.695 124.395 270.008 121.293C271.704 117.842 272.788 113.862 273.44 110.084C272.259 111.819 271.544 114.247 270.125 116.104C267.731 119.237 264.932 122.058 262.214 124.907L248.94 138.636C247.701 138.869 247.324 138.782 246.483 139.688C256.028 142.73 268.046 150.48 276.028 156.437C279.888 159.524 285.541 163.636 286.274 168.888C287.025 174.265 280.553 179.553 277.197 183.192C273.194 187.534 269.226 191.381 265.585 196.089C267.261 196.089 269.007 196.144 270.689 196.172C274.863 192.086 279.087 186.969 283.04 183.054C291.73 174.447 293.366 165.759 283.209 157.399C276.571 151.937 262.211 141.097 254.034 138.942C257.73 136.331 264.947 128.183 267.864 124.668C269.638 127.855 275.123 133.601 277.888 135.936C292.676 148.423 300.549 126.302 305.736 116.22C307.712 112.379 309.991 108.259 312.733 104.912C312.925 105.396 313.373 106.579 313.731 106.875C317.745 109.13 323.335 102.075 327.655 102.295C330.161 102.422 333.342 105.215 332.133 107.704C331.846 108.295 330.824 110.105 330.98 110.735C332.599 117.293 339.308 108.586 337.281 117.482C344.221 118.913 339.62 120.99 343.468 124.328C345.311 124.857 346.096 123.128 346.84 121.754C350.614 120.061 350.003 121.754 353 122.455C354.84 122.886 359.194 120.661 359.594 124.538C359.633 124.91 361.552 125.376 361.872 126.45C361.556 127.348 360.808 128.035 360.16 128.757L362.083 130.881C359.156 134.004 358.825 134.009 354.612 134.839L354.57 135.047C353.417 141.11 354.075 144.498 357.51 149.495C358.549 149.696 359.701 149.862 360.754 150.037C360.763 152.21 360.738 152.995 361.147 155.117C362.8 156.148 364.028 156.91 364.566 158.94C364.985 160.521 364.409 162.253 362.499 162.205C360.886 162.165 359.941 160.876 358.942 159.779C357.47 161.031 355.839 162.888 354.337 164.316L350.701 163.222C350.378 164.827 350.098 166.456 349.577 168.005C344.419 169.582 348.819 171.053 344.177 172.608C344.22 174.588 344.649 180.965 343.724 182.113C342.599 182.458 339.699 180.532 337.659 180.693C335.783 180.841 335.234 181.347 333.491 181.957C333.499 181.954 332.174 181.688 331.976 181.649C330.904 182.854 332.238 184.014 330.563 184.448C328.228 183.273 327.584 184.184 325.571 185.469L325.546 186.012C325.406 189.341 325.457 189.698 327.656 192.087C328.857 192.13 330.754 192.043 331.663 192.683C332.031 193.676 332.029 193.212 331.876 194.116C330.132 195.41 327.668 193.972 327.029 195.652C327.502 197.299 327.954 197.051 329.63 197.076L374.388 197.355C380.077 197.402 386.378 197.185 391.999 197.466L408.877 305.055C398.727 308.611 388.591 312.306 378.417 315.769C377.084 315.332 375.527 314.935 374.157 314.603C366.423 312.725 358.581 310.287 350.783 308.736C350.711 319.217 350.584 329.823 350.437 340.276C350.263 347.266 348.714 352.312 343.513 357.093C337.152 363.151 329.789 362.725 321.6 362.131C311.739 361.416 301.708 361.702 291.808 361.234C289.167 364.989 290.359 363.136 287.807 363.585C286.991 364.644 287.815 367.157 287.758 368.869C283.167 373.529 279.762 364.381 276.399 375.717C274.377 376.364 273.408 376.958 272.902 379.306C272.362 381.813 273.279 383.459 274.621 385.457L274.484 385.754C273.053 388.8 273.433 390.713 273.86 393.914C272.875 393.367 272.091 392.839 270.996 392.595L270.735 392.867C270.781 393.645 272.272 395.438 272.848 396.475C272.889 397.562 272.831 397.19 272.323 398.257C271.082 400.861 272.243 405.35 272.543 408.013C270.812 409.455 268.759 406.966 267.615 405.693C264.924 406.084 263.379 406.316 260.728 407C260.426 408.044 260.297 408.943 259.242 409.4C257.129 410.315 255.364 409.351 254.465 407.361C253.576 405.392 254.564 404.061 254.446 402.062C254.295 399.504 253.66 397.048 252.51 394.762C250.905 391.608 248.174 390.916 245.088 389.977C243.278 391.679 235.622 393.608 233.261 392.639C232.143 391.651 232.307 388.417 232.157 386.651C230.074 385.345 228.676 384.979 226.336 384.368C225.6 385.151 224.895 385.703 224.072 386.385L220.055 385.55L220.765 388.944C217.344 394.672 216.579 388.901 214.084 386.296C213.059 385.302 211.556 384.425 210.113 384.445C206.069 384.5 206.255 380.846 207.616 378.173C207.182 376.685 205.802 372.684 205.652 371.446C205.369 369.102 204.584 369.44 204.549 368.063L204.865 367.816C206.039 368.194 207.652 369.821 209.131 370.664C211.445 369.618 211.28 369.702 213.694 370.439C213.6 370.261 213.506 370.083 213.412 369.905C212.294 368.652 212.065 364.834 211.055 363.919C209.231 362.266 208.495 362.835 206.828 360.486C194.013 360.369 181.381 361.479 168.624 362.183C163.027 362.266 157.825 359.872 153.934 355.953C148.559 350.587 148.084 343.983 147.956 336.83C147.782 327.115 147.572 317.437 147.688 307.727C144.596 308.464 120.456 314.988 118.736 314.754C110.935 313.691 97.2967 307.502 88.8443 305.446L88.5626 305.38C88.9595 299.742 89.9884 293.431 90.565 287.645L97.0423 225.696C98.1022 216.373 99.7294 206.609 100.563 197.319C102.271 197.396 104.135 197.395 105.847 197.381C125.546 197.211 145.377 197.708 165.058 196.943C160.279 189.878 165.175 191.89 165.607 188.266C165.655 187.865 165.607 188.124 165.7 187.678L165.878 186.831L166.229 186.735L167.364 187.522C168.229 187.724 170.328 186.934 171.307 186.638L171.627 186.852C171.727 187.639 171.689 187.666 172.033 188.363L172.395 188.397C172.908 187.905 172.92 187.784 173.585 187.62C176.074 189.099 175.77 186.555 177.349 185.835C178.599 186.071 179.669 187.646 180.475 188.655C181.591 187.96 184.78 185.743 185.797 185.891L186.039 186.632C186.779 187.145 188.416 186.696 189.481 186.532C190.46 186.854 191.42 188.028 192.186 188.81C190.33 189.98 183.129 194.336 183.815 196.785C184.595 197.185 186.402 197.083 187.408 197.107C190.885 194.058 194.996 192.792 199.272 191.353C201.515 188.568 202.245 186.785 203.078 183.311C204.535 177.232 206.75 171.373 209.764 165.893C211.11 163.445 212.52 160.925 213.522 158.32C210.72 151.646 212.482 144.168 216.718 138.55C219.86 134.383 223.199 132.54 224.342 127.003C226.2 117.95 225.267 108.391 228.077 99.4261C228.524 97.9996 229.063 97.5259 230.383 96.9736L230.435 96.6794C229.388 96.1073 226.203 96.4895 224.858 96.5966C218.151 97.1307 211.376 96.5337 204.792 95.0434C202.814 103.281 199.368 105.05 196.073 112.2C194.82 114.918 192.761 120.671 193.803 123.512C194.409 125.168 195.267 127.181 195.972 128.888C196.668 130.176 196.107 132.535 196.43 133.73C198.907 142.898 196.236 148.622 186.737 151.648C184.618 159.25 181.761 165.767 172.747 167.176C164.382 168.154 156.939 161.512 156.249 153.325C155.48 144.2 161.073 137.501 170.064 136.451C171.619 130.592 173.786 126.98 180.362 126.21C186.674 118.641 185.72 117.139 187.273 107.638C187.981 103.313 191.092 89.4453 194.151 86.736C198.625 82.774 211.442 79.1694 217.504 78.5629C220.176 78.3342 225.365 78.8036 227.753 78.3256C230.983 77.7301 236.045 75.5617 239.318 76.0299C246.435 77.0478 251.406 78.3933 258.813 78.3558Z"/><path fill="#D2D2D1" d="M241.462 137.999C243.453 138.044 246.962 138.355 248.94 138.636C247.701 138.869 247.324 138.782 246.483 139.688C244.74 139.144 243.176 138.627 241.462 137.999Z"/><path fill="#01C3F2" d="M218.929 205.857C228.557 205.649 239.191 205.643 248.805 206.26C252.781 206.515 258.016 209.001 260.038 212.559C263.738 219.071 263.719 232.343 260.205 239.006C258.901 241.445 256.775 241.962 254.342 242.483C262.967 245.643 262.927 251.037 262.826 259.197C262.752 265.229 262.62 269.972 259.483 275.266C252.589 283.656 239.802 281.077 230.099 281.51C225.043 281.735 219.482 281.734 214.422 281.751C214.377 274.302 214.941 265.89 215.271 258.382L216.264 230.818L216.849 214.842C216.908 212.92 216.94 207.77 217.223 206.248C217.836 205.733 217.926 205.91 218.929 205.857Z"/><path fill="#040403" d="M233.109 249.479C235.571 249.524 241.879 249.275 243.529 250.837C246.577 253.723 245.999 263.517 243.431 266.559C240.329 268.162 235.98 267.799 232.468 267.797C232.55 261.729 233.11 255.593 233.109 249.479Z"/><path fill="#040403" d="M234.251 219.655C241.833 220.304 246.63 218.35 245.82 228.661C245.604 231.411 245.677 232.766 243.959 235.189C241.36 237.221 237.087 236.632 233.731 236.601C233.768 230.985 234.078 225.281 234.251 219.655Z"/><path fill="#01C3F2" d="M142.308 207.135C146.271 206.974 150.438 207.034 154.421 207.034C154.028 210.893 153.835 215.8 153.541 219.762L151.293 250.803C150.545 261.354 149.036 276.13 148.979 286.409C143.324 287.314 136.608 288.359 130.95 288.891C131.321 277.79 132.596 264.519 133.595 253.35C129.579 253.636 125.7 254.338 121.682 254.618C121.654 257.678 120.974 262.102 120.716 265.275C120.015 273.917 118.916 282.712 118.431 291.359C116.653 291.727 114.844 292.064 113.06 292.412C108.755 293.314 104.533 294.559 100.204 295.304C100.475 286.544 102.345 272.916 103.244 264.057L108.512 207.412C114.023 207.131 120.659 207.287 126.235 207.331C124.872 217.195 124.523 228.11 123.241 238.079C127.118 237.723 131.122 237.523 135.014 237.457C134.983 234.566 135.39 231.251 135.557 228.337C135.952 221.421 136.832 214.172 137.038 207.274L142.308 207.135Z"/><path fill="#01C3F2" d="M356.013 206.775C363.643 206.649 372.147 207.186 379.839 207.546C385.098 236.31 392.913 266.624 397.319 295.342C391.395 294.084 385.077 292.987 379.091 292.073C378.786 289.298 378.273 286.348 377.82 283.584C377.3 280.586 376.702 277.485 376.393 274.465C371.924 274.247 366.295 273.373 361.663 272.906L359.247 288.858C353.283 288.182 347.268 287.14 341.287 286.59C344.406 268.712 348.4 250.667 351.555 232.754C353.069 224.156 354.936 215.426 356.013 206.775Z"/><path fill="#040403" d="M367.83 226.189C368.356 226.883 373.255 256.201 373.979 259.834C372.723 259.611 371.394 259.443 370.125 259.261C367.854 258.97 365.813 258.781 363.532 258.603L366.529 236.726C366.89 233.958 367.292 228.456 367.83 226.189Z"/><path fill="#01C3F2" d="M298.783 205.817C311.685 205.697 326.053 206.025 338.992 206.516C338.982 209.388 339.118 216.191 338.526 218.655C337.567 222.649 334.574 228.305 333.01 232.304C328.185 244.638 322.058 257.015 317.196 269.246C321.969 269.187 332.584 270.214 337.274 270.821C337.387 275.751 337.279 281.142 337.268 286.107C332.739 285.869 327.402 285.145 322.787 284.753L297.044 282.773C297.009 279.238 296.797 273.292 297.359 269.999C297.637 268.37 300.255 262.765 301.065 260.958L308.049 245.492C311.185 238.547 315.657 227.411 319.138 220.994C312.371 220.918 305.712 220.53 298.73 220.511L298.783 205.817Z"/><path fill="#01C3F2" d="M199.583 206.111C204.374 205.94 209.123 205.978 213.915 205.992C211.874 211.029 209.379 216.272 207.132 221.266L198.344 241.162C196.508 245.328 193.464 251.335 192.384 255.582C191.875 257.583 191.787 264.227 191.705 266.495L191.04 282.953C185.288 283.525 179.208 283.862 173.427 284.266C173.489 277.684 174.19 270.658 174.298 264.038C174.349 260.918 174.762 257.534 174.348 254.446C172.814 248.587 170.147 240.794 168.287 234.868L159.619 206.785L178.637 206.538C178.7 207.658 178.896 208.939 179.115 210.046C180.975 219.453 182.734 228.973 184.918 238.304C186.716 228.68 191.817 216.196 194.445 206.345L199.583 206.111Z"/><path fill="#FECF02" d="M187.119 292.357C202.767 291.752 205.225 297.62 204.452 312.25C204.144 318.072 203.281 323.02 197.73 326.35C197.308 326.603 197.166 326.606 196.718 326.938C197.036 328.658 198.684 332.726 199.325 334.558C201.143 339.762 203.153 344.934 204.679 350.241C200.097 350.213 194.824 350.46 190.249 350.777C189.673 348.258 185.995 338.325 184.923 335.185C184.36 333.583 183.822 331.601 183.329 329.948L179.525 330.024L179.264 351.41C174.476 351.73 170.072 352.153 165.232 352.36L165.449 294.028C172.604 293.441 179.974 292.833 187.119 292.357Z"/><path fill="#040403" d="M179.726 304.439C182.15 304.569 187.363 303.845 189.016 305.196C191.395 307.14 190.687 315.651 188.937 317.847C186.381 319.116 182.448 319.17 179.592 319.297C179.522 314.502 179.681 309.283 179.726 304.439Z"/><path fill="#FECF02" d="M222.844 290.618C229.161 290.403 236.484 290.579 242.879 290.579C246.326 310.312 250.657 330.072 254.291 349.773L239.17 349.75L238.036 342.463C237.874 341.607 237.779 340.685 237.668 339.817C233.987 339.923 229.478 340.023 225.83 339.839C225.589 343.13 224.762 346.378 224.395 349.709C220.169 349.518 213.809 349.697 209.554 349.827C210.507 344.756 221.81 291.276 222.15 290.746L222.844 290.618Z"/><path fill="#040403" d="M231.775 304.417C232.064 304.667 232.182 304.834 232.242 305.241C233.42 313.167 234.61 321.098 235.955 328.997L231.938 329.04L227.86 329.032C229.089 322.827 230.078 316.407 231.105 310.157C231.422 308.23 231.466 306.365 231.775 304.417Z"/><path fill="#FECF02" d="M274.249 290.356C279.703 290.021 287.406 290.786 291.435 294.917C296.077 299.678 295.72 306.578 295.571 312.72C292.738 312.288 284.677 312.153 281.464 312.013C281.509 309.682 281.698 306.905 280.917 304.683C280.519 303.548 279.836 302.657 278.708 302.185C277.367 301.623 275.725 301.576 274.394 302.189C273.53 302.587 272.739 303.331 272.47 304.264C271.72 306.871 271.556 336.15 272.532 337.942C273.34 339.425 274.879 339.688 276.371 340.101C277.577 339.862 278.589 339.773 279.552 338.962C281.49 337.33 281.093 332.502 281.248 329.799L288.6 330.059C290.913 330.199 293.1 330.321 295.423 330.368C294.998 335.679 295.906 341.659 292.445 346.206C290.233 349.111 286.071 350.827 282.465 351.111C275.896 351.594 267.833 351.797 262.365 347.486C257.38 343.557 257.126 337.127 257.238 331.347C257.317 324.711 257.348 318.063 257.389 311.428C257.419 306.61 257.2 301.623 259.665 297.299C262.774 291.847 268.578 290.729 274.249 290.356Z"/><path fill="#FECF02" d="M302.516 292.207C303.744 292.428 305.003 292.499 306.245 292.614C315.242 293.452 324.257 294.112 333.22 295.281C333.215 299.312 333.238 303.305 333.045 307.334C327.759 306.46 322.149 306.291 316.808 305.516C316.786 309.182 316.772 312.816 316.655 316.48C321.501 316.68 325.95 317.405 330.709 317.732C330.631 321.318 330.509 325.923 330.678 329.441C326.051 328.955 321.208 328.8 316.616 328.224C316.659 330.331 316.551 332.804 316.512 334.938L316.467 339.736C321.567 339.852 327.917 340.521 333.082 340.927L332.999 352.776C329.769 352.287 325.221 352.245 321.87 352.059C315.326 351.694 308.739 351.354 302.189 351.229C301.927 331.692 302.451 311.759 302.516 292.207Z"/><path fill="#01C3F2" d="M272.483 205.831C278.114 205.68 284.609 205.729 290.212 205.917C289.865 231.23 289.649 257.09 288.938 282.354C283.153 281.972 276.792 281.792 271.009 281.754C270.972 265.262 271.784 248.719 271.886 232.217C271.941 223.415 272.503 214.651 272.483 205.831Z"/><path fill="#F5F5F4" d="M226.738 164.826C235.591 168.752 251.964 170.584 262.141 171.898C254.99 176.754 251.362 187.865 248.313 195.758C246.638 195.903 245.143 196.03 243.463 196.069C246.655 187.806 248.791 181.037 254.154 173.811C249.838 173.685 245.203 172.995 240.976 172.055C237.228 179.325 228.809 192.766 221.68 196.456L216.749 196.418C222.436 191.356 226.983 186.881 231.232 180.417C232.995 177.736 235.123 173.229 237.038 171.01C232.042 169.091 229.254 167.701 224.833 164.889L226.738 164.826Z"/><path fill="#F5F5F4" d="M178.919 130.917C180.118 131.24 179.627 133.456 180.446 134.091C182.382 135.589 187.539 138.277 189.92 138.886C190.722 139.091 191.698 138.655 192.55 139.398C193.614 141.877 189.966 144.83 188.066 145.874L185.317 147.136C182.867 141.705 180.336 139.18 175.009 136.848C176.068 133.689 176.343 132.976 178.919 130.917Z"/><path fill="#D2D2D1" d="M222.357 162.905C224.126 163.524 225.052 163.972 226.738 164.826L224.833 164.889C224.048 164.429 223.072 163.522 222.357 162.905Z"/><path fill="#040403" d="M207.071 152.935L207.39 153.164C210.112 159.361 207.111 160.978 204.886 165.86C202.491 171.114 199.752 178.53 199.109 184.195C197.393 182.319 195.206 181.449 194.532 179.405C194.743 178.379 194.827 178.561 195.625 177.646C197.379 175.524 193.37 174.343 191.974 173.956C195.121 170.923 196.242 169.177 192.717 166.209C191.824 163.227 191.016 159.601 194.648 158.441C196.5 157.849 196.225 157.39 197.372 156.805C198.313 157.003 200.074 158.302 200.968 158.891C202.976 157.445 205.117 154.822 207.071 152.935Z"/><path fill="#040403" d="M158.461 173.838C161.215 174.888 158.559 178.386 159.276 179.976C159.885 181.326 162.285 181.015 160.534 184.098C159.47 183.769 157.998 182.706 157.01 182.059C156.877 179.383 157.255 176.247 158.461 173.838Z"/><path fill="#040403" d="M161.337 184.819C161.869 185.067 161.736 185.016 162.194 185.419C162.609 186.734 162.189 187.365 161.607 188.588C159.491 187.989 160.588 186.091 161.337 184.819Z"/></svg>